<svg width="57" height="57" viewBox="0 0 57 57" fill="none" xmlns="http://www.w3.org/2000/svg">
<g clip-path="url(#clip0_139_3425)">
<path d="M19.4062 56.4999C24.5582 56.4999 28.7395 52.3186 28.7395 47.1666V37.8333H19.4062C14.2542 37.8333 10.0729 42.0146 10.0729 47.1666C10.0729 52.3186 14.2542 56.4999 19.4062 56.4999Z" fill="#0ACF83"/>
<path d="M10.0729 28.5001C10.0729 23.3481 14.2542 19.1667 19.4062 19.1667H28.7395V37.8334H19.4062C14.2542 37.8334 10.0729 33.6521 10.0729 28.5001Z" fill="#A259FF"/>
<path d="M10.0729 9.83333C10.0729 4.68133 14.2542 0.5 19.4062 0.5H28.7395V19.1667H19.4062C14.2542 19.1667 10.0729 14.9853 10.0729 9.83333Z" fill="#F24E1E"/>
<path d="M28.7395 0.5H38.0728C43.2248 0.5 47.4062 4.68133 47.4062 9.83333C47.4062 14.9853 43.2248 19.1667 38.0728 19.1667H28.7395V0.5Z" fill="#FF7262"/>
<path d="M47.4062 28.5001C47.4062 33.6521 43.2248 37.8334 38.0728 37.8334C32.9208 37.8334 28.7395 33.6521 28.7395 28.5001C28.7395 23.3481 32.9208 19.1667 38.0728 19.1667C43.2248 19.1667 47.4062 23.3481 47.4062 28.5001Z" fill="#1ABCFE"/>
</g>
<defs>
<clipPath id="clip0_139_3425">
<rect width="56" height="56" fill="white" transform="translate(0.666626 0.5)"/>
</clipPath>
</defs>
</svg>
