<svg width="176" height="117" viewBox="0 0 176 117" fill="none" xmlns="http://www.w3.org/2000/svg">
<path d="M73.9434 34.4524L65.2372 34.5C65.0791 34.5 65 34.4206 65 34.2618L65.0949 0.741933C65.0949 0.614874 65.1582 0.551344 65.2847 0.551344L74.3704 0.503697C76.1734 0.45605 77.8023 0.868992 79.2573 1.74252C80.7281 2.61606 81.8984 3.7993 82.7682 5.29224C83.6539 6.76931 84.0967 8.4052 84.0967 10.1999V24.2082C84.0967 26.0823 83.646 27.7976 82.7445 29.3541C81.8273 30.8947 80.6095 32.1256 79.0912 33.0468C77.573 33.9521 75.8571 34.4206 73.9434 34.4524ZM74.3704 6.34048L70.9781 6.38813L70.9307 28.4964H73.9434C75.1454 28.4964 76.1575 28.0756 76.9799 27.2338C77.8023 26.392 78.2135 25.3835 78.2135 24.2082V10.1523C78.2135 9.11991 77.8339 8.22255 77.0748 7.46019C76.3157 6.68196 75.4142 6.30872 74.3704 6.34048Z" fill="#31333C"/>
<path d="M103.81 34.5H88.1058C87.9793 34.5 87.9161 34.4206 87.9161 34.2618L87.9635 0.741933C87.9635 0.614874 88.0268 0.551344 88.1533 0.551344H103.763C103.889 0.551344 103.953 0.630756 103.953 0.78958V6.24519C103.953 6.37225 103.889 6.43578 103.763 6.43578H93.7993V14.0593H103.763C103.889 14.0593 103.953 14.1229 103.953 14.2499L104 19.777C104 19.9041 103.937 19.9676 103.81 19.9676H93.7993V28.4964H103.81C103.937 28.4964 104 28.5759 104 28.7347V34.3094C104 34.4365 103.937 34.5 103.81 34.5Z" fill="#31333C"/>
<path d="M8.86835 73.4538L0.235235 73.5C0.0784116 73.5 0 73.4229 0 73.2688L0.0940939 40.7348C0.0940939 40.6115 0.156823 40.5498 0.282282 40.5498L9.29178 40.5036C11.0796 40.4573 12.6948 40.8581 14.1376 41.706C15.5961 42.5538 16.7566 43.7023 17.6191 45.1513C18.4973 46.5849 18.9364 48.1727 18.9364 49.9146V63.5109C18.9364 65.3299 18.4895 66.9948 17.5956 68.5054C16.686 70.0007 15.4785 71.1954 13.9729 72.0895C12.4674 72.9682 10.7659 73.4229 8.86835 73.4538ZM9.29178 46.1687L5.92792 46.2149L5.88087 67.673H8.86835C10.0602 67.673 11.0639 67.2645 11.8794 66.4475C12.6948 65.6305 13.1026 64.6516 13.1026 63.5109V49.8684C13.1026 48.8664 12.7262 47.9954 11.9735 47.2555C11.2207 46.5001 10.3268 46.1379 9.29178 46.1687Z" fill="#AF232B"/>
<path d="M38.4844 73.5H22.9119C22.7864 73.5 22.7237 73.4229 22.7237 73.2688L22.7707 40.7348C22.7707 40.6115 22.8335 40.5498 22.9589 40.5498H38.4374C38.5628 40.5498 38.6256 40.6269 38.6256 40.7811V46.0762C38.6256 46.1995 38.5628 46.2612 38.4374 46.2612H28.5575V53.6605H38.4374C38.5628 53.6605 38.6256 53.7222 38.6256 53.8455L38.6726 59.21C38.6726 59.3334 38.6099 59.395 38.4844 59.395H28.5575V67.673H38.4844C38.6099 67.673 38.6726 67.7501 38.6726 67.9043V73.315C38.6726 73.4383 38.6099 73.5 38.4844 73.5Z" fill="#AF232B"/>
<path d="M53.2101 73.5H47.3763C47.2352 73.5 47.1567 73.4229 47.1411 73.2688L40.4839 40.7348C40.4525 40.6115 40.5153 40.5498 40.6721 40.5498H46.1295C46.255 40.5498 46.3334 40.6115 46.3648 40.7348L50.3167 62.4241L54.1746 40.7348C54.2059 40.6115 54.2844 40.5498 54.4098 40.5498H59.7967C59.9692 40.5498 60.0319 40.6115 59.9849 40.7348L53.4454 73.2688C53.4297 73.4229 53.3513 73.5 53.2101 73.5Z" fill="#AF232B"/>
<path d="M69.3331 74.5C67.6418 74.5 66.0824 74.0677 64.6549 73.203C63.2429 72.3383 62.1102 71.188 61.2568 69.752C60.4189 68.3006 60 66.7103 60 64.9809V62.8038C60 62.634 60.0776 62.549 60.2327 62.549H65.5859C65.71 62.549 65.7721 62.634 65.7721 62.8038V64.9809C65.7721 66.0154 66.1212 66.911 66.8195 67.6676C67.5177 68.4087 68.3556 68.7793 69.3331 68.7793C70.3262 68.7793 71.1718 68.401 71.8701 67.6444C72.5683 66.8724 72.9174 65.9846 72.9174 64.9809C72.9174 63.8229 72.1571 62.8115 70.6365 61.9469C70.3882 61.7925 70.0624 61.6072 69.659 61.391C69.2711 61.1594 68.8056 60.8969 68.2625 60.6035C67.7194 60.3102 67.1919 60.0245 66.6798 59.7466C66.1678 59.4532 65.6713 59.1753 65.1902 58.9128C63.4524 57.8937 62.1568 56.6199 61.3034 55.0913C60.4655 53.5472 60.0465 51.8179 60.0465 49.9033C60.0465 48.1431 60.481 46.5527 61.3499 45.1322C62.2188 43.7271 63.3515 42.6153 64.748 41.797C66.16 40.9632 67.6884 40.5463 69.3331 40.5463C71.0244 40.5463 72.5761 40.9632 73.9881 41.797C75.4001 42.6462 76.525 43.7734 77.3629 45.1785C78.2163 46.5836 78.643 48.1585 78.643 49.9033V53.7943C78.643 53.9178 78.5809 53.9796 78.4568 53.9796H73.1036C72.9795 53.9796 72.9174 53.9178 72.9174 53.7943L72.8709 49.9033C72.8709 48.7916 72.5218 47.8883 71.8235 47.1935C71.1253 46.4986 70.2951 46.1512 69.3331 46.1512C68.3556 46.1512 67.5177 46.5218 66.8195 47.2629C66.1212 48.0041 65.7721 48.8842 65.7721 49.9033C65.7721 50.9378 65.9893 51.8025 66.4238 52.4973C66.8738 53.1921 67.6884 53.856 68.8676 54.4891C68.9918 54.5509 69.2788 54.7053 69.7288 54.9523C70.1788 55.1994 70.6753 55.4773 71.2184 55.7861C71.777 56.0795 72.2813 56.3497 72.7312 56.5967C73.1812 56.8283 73.4527 56.9673 73.5458 57.0136C75.1285 57.8937 76.3776 58.9746 77.2931 60.2561C78.224 61.5377 78.6895 63.1126 78.6895 64.9809C78.6895 66.7875 78.2706 68.4087 77.4327 69.8447C76.5793 71.2807 75.4466 72.4155 74.0346 73.2493C72.6226 74.0831 71.0555 74.5 69.3331 74.5Z" fill="#31333C"/>
<path d="M87.627 74.0368H82.2273C82.0721 74.0368 81.9945 73.9596 81.9945 73.8052L82.0411 41.218C82.0411 41.0945 82.1032 41.0327 82.2273 41.0327H87.5805C87.7046 41.0327 87.7666 41.0945 87.7666 41.218L87.8132 73.8052C87.8132 73.9596 87.7511 74.0368 87.627 74.0368Z" fill="#31333C"/>
<path d="M100.731 74.5C99.0083 74.5 97.4567 74.0754 96.0757 73.2262C94.6792 72.3769 93.5543 71.2343 92.7009 69.7984C91.863 68.3624 91.444 66.7566 91.444 64.9809V49.9496C91.444 48.2203 91.8707 46.6453 92.7241 45.2248C93.562 43.7888 94.687 42.6462 96.099 41.797C97.511 40.9323 99.0548 40.5 100.731 40.5C102.484 40.5 104.067 40.9169 105.479 41.7507C106.891 42.5999 108.008 43.7348 108.83 45.1553C109.668 46.5758 110.087 48.1739 110.087 49.9496V52.1267C110.087 52.2502 110.009 52.312 109.854 52.312H104.501C104.377 52.312 104.315 52.2502 104.315 52.1267V50.3202C104.315 49.1158 103.974 48.1199 103.291 47.3324C102.608 46.545 101.755 46.1512 100.731 46.1512C99.8152 46.1512 99.0005 46.5295 98.2868 47.2861C97.573 48.0427 97.2162 48.9305 97.2162 49.9496V64.9809C97.2162 66.0154 97.5653 66.911 98.2635 67.6676C98.9617 68.4087 99.7841 68.7793 100.731 68.7793C101.755 68.7793 102.608 68.4164 103.291 67.6907C103.974 66.9496 104.315 66.0463 104.315 64.9809V62.6417H100.987C100.816 62.6417 100.731 62.5645 100.731 62.4101V57.1063C100.731 56.9519 100.816 56.8747 100.987 56.8747H109.901C110.025 56.8747 110.087 56.9519 110.087 57.1063V64.9809C110.087 66.7566 109.668 68.3624 108.83 69.7984C107.977 71.2343 106.852 72.3769 105.455 73.2262C104.059 74.0754 102.484 74.5 100.731 74.5Z" fill="#31333C"/>
<path d="M118.652 74.0368H113.881C113.633 74.0368 113.508 73.9287 113.508 73.7125L113.462 41.4033C113.462 41.1562 113.586 41.0327 113.834 41.0327H118.14L126.193 59.7234L125.96 41.4033C125.96 41.1562 126.1 41.0327 126.379 41.0327H131.104C131.29 41.0327 131.383 41.1562 131.383 41.4033L131.43 73.7589C131.43 73.9441 131.352 74.0368 131.197 74.0368H127.008L118.745 56.5736L119.094 73.6662C119.094 73.9133 118.947 74.0368 118.652 74.0368Z" fill="#31333C"/>
<path d="M151.167 74.0368H135.759C135.635 74.0368 135.573 73.9596 135.573 73.8052L135.619 41.218C135.619 41.0945 135.681 41.0327 135.806 41.0327H151.12C151.244 41.0327 151.306 41.1099 151.306 41.2643V46.5681C151.306 46.6916 151.244 46.7534 151.12 46.7534H141.345V54.1649H151.12C151.244 54.1649 151.306 54.2266 151.306 54.3501L151.353 59.7234C151.353 59.847 151.291 59.9087 151.167 59.9087H141.345V68.2003H151.167C151.291 68.2003 151.353 68.2775 151.353 68.4319V73.8515C151.353 73.975 151.291 74.0368 151.167 74.0368Z" fill="#31333C"/>
<path d="M161.175 74.0368H155.775C155.651 74.0368 155.589 73.9596 155.589 73.8052L155.682 41.218C155.682 41.0945 155.744 41.0327 155.868 41.0327H165.504C167.226 41.0327 168.809 41.4496 170.252 42.2834C171.695 43.1172 172.843 44.2366 173.697 45.6417C174.566 47.0468 175 48.6371 175 50.4128C175 51.5708 174.822 52.6208 174.465 53.5627C174.108 54.5045 173.689 55.2997 173.208 55.9482C172.742 56.5967 172.316 57.0754 171.928 57.3842C173.65 59.2834 174.511 61.5145 174.511 64.0777L174.558 73.8052C174.558 73.9596 174.48 74.0368 174.325 74.0368H168.925C168.801 74.0368 168.739 73.9905 168.739 73.8978V64.0777C168.739 62.9351 168.336 61.9469 167.529 61.1131C166.722 60.2793 165.729 59.8624 164.55 59.8624H161.408L161.361 73.8052C161.361 73.9596 161.299 74.0368 161.175 74.0368ZM165.504 46.7071H161.408V54.1649H165.504C166.481 54.1649 167.35 53.802 168.111 53.0763C168.887 52.3506 169.274 51.4628 169.274 50.4128C169.274 49.4092 168.902 48.5445 168.157 47.8188C167.412 47.0777 166.528 46.7071 165.504 46.7071Z" fill="#31333C"/>
<path d="M17.5992 115.023H2.18626C2.06209 115.023 2 114.944 2 114.785L2.04656 81.2391C2.04656 81.1119 2.10865 81.0484 2.23282 81.0484H17.5527C17.6768 81.0484 17.7389 81.1278 17.7389 81.2868V86.7466C17.7389 86.8738 17.6768 86.9373 17.5527 86.9373H7.77405V94.5668H17.5527C17.6768 94.5668 17.7389 94.6303 17.7389 94.7575L17.7855 100.289C17.7855 100.416 17.7234 100.48 17.5992 100.48H7.77405V109.015H17.5992C17.7234 109.015 17.7855 109.094 17.7855 109.253V114.832C17.7855 114.96 17.7234 115.023 17.5992 115.023Z" fill="#AF232B"/>
<path d="M37.6221 115.023H22.2092C22.085 115.023 22.0229 114.944 22.0229 114.785L22.0695 81.2868C22.0695 81.1278 22.1471 81.0484 22.3023 81.0484H27.6107C27.7659 81.0484 27.8435 81.1278 27.8435 81.2868L27.7969 109.015H37.6221C37.7774 109.015 37.855 109.094 37.855 109.253V114.785C37.855 114.944 37.7774 115.023 37.6221 115.023Z" fill="#AF232B"/>
<path d="M49.7989 115.5C48.107 115.5 46.5471 115.055 45.1191 114.165C43.7066 113.275 42.5658 112.091 41.6966 110.612C40.8429 109.118 40.416 107.481 40.416 105.701L40.4626 90.2275C40.4626 88.4155 40.8894 86.7863 41.7431 85.3399C42.5813 83.8776 43.7144 82.7094 45.1424 81.8351C46.5704 80.945 48.1225 80.5 49.7989 80.5C51.5373 80.5 53.0972 80.9371 54.4786 81.8113C55.8756 82.6855 56.9931 83.8617 57.8313 85.3399C58.685 86.8022 59.1118 88.4314 59.1118 90.2275L59.1584 105.701C59.1584 107.481 58.7393 109.11 57.9011 110.589C57.0475 112.083 55.9144 113.275 54.5019 114.165C53.0894 115.055 51.5218 115.5 49.7989 115.5ZM49.7989 109.611C50.7612 109.611 51.5994 109.214 52.3134 108.419C53.0274 107.608 53.3844 106.702 53.3844 105.701L53.3378 90.2275C53.3378 89.1467 53.0041 88.2327 52.3366 87.4857C51.6692 86.7386 50.8233 86.3651 49.7989 86.3651C48.821 86.3651 47.9828 86.7307 47.2844 87.4619C46.5859 88.193 46.2366 89.1149 46.2366 90.2275V105.701C46.2366 106.766 46.5859 107.688 47.2844 108.467C47.9828 109.23 48.821 109.611 49.7989 109.611Z" fill="#AF232B"/>
<path d="M68.355 115.023H63C62.8448 115.023 62.7672 114.944 62.7672 114.785L62.8603 81.2391C62.8603 81.1119 62.9224 81.0484 63.0466 81.0484H72.2198C75.1379 81.0484 77.4429 81.9623 79.1347 83.7902C80.8421 85.6022 81.6958 88.0738 81.6958 91.205C81.6958 93.4939 81.2534 95.4886 80.3687 97.1894C79.4684 98.8742 78.3043 100.178 76.8763 101.099C75.4483 102.021 73.8962 102.482 72.2198 102.482H68.5878V114.785C68.5878 114.944 68.5102 115.023 68.355 115.023ZM72.2198 86.842L68.5878 86.8896V96.5695H72.2198C73.2288 96.5695 74.1057 96.0767 74.8508 95.0913C75.5958 94.0899 75.9683 92.7945 75.9683 91.205C75.9683 89.9335 75.6346 88.8924 74.9672 88.0817C74.2997 87.2552 73.384 86.842 72.2198 86.842Z" fill="#AF232B"/>
<path d="M100.159 115.023H84.7458C84.6216 115.023 84.5595 114.944 84.5595 114.785L84.6061 81.2391C84.6061 81.1119 84.6682 81.0484 84.7924 81.0484H100.112C100.236 81.0484 100.298 81.1278 100.298 81.2868V86.7466C100.298 86.8738 100.236 86.9373 100.112 86.9373H90.3336V94.5668H100.112C100.236 94.5668 100.298 94.6303 100.298 94.7575L100.345 100.289C100.345 100.416 100.283 100.48 100.159 100.48H90.3336V109.015H100.159C100.283 109.015 100.345 109.094 100.345 109.253V114.832C100.345 114.96 100.283 115.023 100.159 115.023Z" fill="#AF232B"/>
<path d="M110.17 115.023H104.769C104.645 115.023 104.582 114.944 104.582 114.785L104.676 81.2391C104.676 81.1119 104.738 81.0484 104.862 81.0484H114.501C116.224 81.0484 117.807 81.4775 119.25 82.3358C120.694 83.1941 121.842 84.3465 122.696 85.7929C123.565 87.2393 124 88.8765 124 90.7044C124 91.8965 123.821 92.9773 123.465 93.9469C123.108 94.9164 122.688 95.735 122.207 96.4026C121.742 97.0702 121.315 97.5629 120.927 97.8808C122.65 99.8358 123.511 102.133 123.511 104.771L123.558 114.785C123.558 114.944 123.48 115.023 123.325 115.023H117.923C117.799 115.023 117.737 114.975 117.737 114.88V104.771C117.737 103.595 117.333 102.578 116.526 101.719C115.719 100.861 114.726 100.432 113.546 100.432H110.403L110.356 114.785C110.356 114.944 110.294 115.023 110.17 115.023ZM114.501 86.8896H110.403V94.5668H114.501C115.479 94.5668 116.348 94.1932 117.108 93.4462C117.884 92.6991 118.273 91.7852 118.273 90.7044C118.273 89.6712 117.9 88.7811 117.155 88.0341C116.41 87.2711 115.525 86.8896 114.501 86.8896Z" fill="#AF232B"/>
</svg>
